<svg width="22" height="22" viewBox="0 0 22 22" fill="none" xmlns="http://www.w3.org/2000/svg">
<circle cx="11" cy="11" r="11" fill="#00D5FA"/>
<path d="M10.972 15.12C10.172 15.12 9.508 15.008 8.98 14.784C8.452 14.552 8.052 14.252 7.78 13.884C7.508 13.516 7.364 13.124 7.348 12.708C7.348 12.644 7.372 12.588 7.42 12.54C7.476 12.484 7.54 12.456 7.612 12.456H9.124C9.236 12.456 9.32 12.476 9.376 12.516C9.44 12.556 9.496 12.608 9.544 12.672C9.608 12.792 9.696 12.908 9.808 13.02C9.928 13.132 10.08 13.224 10.264 13.296C10.456 13.36 10.692 13.392 10.972 13.392C11.436 13.392 11.784 13.32 12.016 13.176C12.256 13.032 12.376 12.836 12.376 12.588C12.376 12.412 12.312 12.268 12.184 12.156C12.056 12.036 11.848 11.932 11.56 11.844C11.28 11.748 10.904 11.652 10.432 11.556C9.824 11.428 9.304 11.264 8.872 11.064C8.448 10.856 8.124 10.588 7.9 10.26C7.676 9.924 7.564 9.508 7.564 9.012C7.564 8.524 7.7 8.088 7.972 7.704C8.252 7.32 8.64 7.02 9.136 6.804C9.632 6.588 10.22 6.48 10.9 6.48C11.452 6.48 11.936 6.552 12.352 6.696C12.776 6.84 13.132 7.032 13.42 7.272C13.708 7.512 13.924 7.768 14.068 8.04C14.22 8.304 14.3 8.564 14.308 8.82C14.308 8.884 14.284 8.944 14.236 9C14.188 9.048 14.128 9.072 14.056 9.072H12.472C12.384 9.072 12.308 9.056 12.244 9.024C12.18 8.992 12.124 8.94 12.076 8.868C12.028 8.692 11.9 8.54 11.692 8.412C11.492 8.276 11.228 8.208 10.9 8.208C10.548 8.208 10.272 8.272 10.072 8.4C9.88 8.52 9.784 8.708 9.784 8.964C9.784 9.124 9.836 9.264 9.94 9.384C10.052 9.504 10.232 9.608 10.48 9.696C10.736 9.784 11.084 9.876 11.524 9.972C12.252 10.108 12.84 10.28 13.288 10.488C13.736 10.688 14.064 10.952 14.272 11.28C14.48 11.6 14.584 12.004 14.584 12.492C14.584 13.036 14.428 13.508 14.116 13.908C13.812 14.3 13.388 14.6 12.844 14.808C12.3 15.016 11.676 15.12 10.972 15.12Z" fill="white"/>
</svg>
